PathFileType	4	(X/Y/Z)	C:\Users\Biomechanik\SynologyDrive\AlexP\Athlete_03\Athlete_3_25_03_31\Squat_bar_01\marker_experimental.trc
DataRate	CameraRate	NumFrames	NumMarkers	Units	OrigDataRate	OrigDataStartFrame	OrigNumFrames
200.000000	200.000000	4	55	mm	200.000000	0	482
Frame#	Time	BL			BR			GLAB			RFHD			LFHD			C7			T6			SPINMOL			SPINM2			SPINM3			T12			BELTOL			BELT2			BELT3			SACROL			SACR2			SACR3			LTHOL			LTH2			LTH3			LSHAOL			LSHA2			LSHA3			LHEE			LTOE			LM5			RTHOL			RTH2			RTH3			RSHAOL			RSHA2			RSHA3			RHEE			RTOE			RM5			STRN			XIPH			LACR			LUAOL			LUA2			LUA3			LLAOL			LLA2			LLA3			LWRR			LWRU			RACR			RUAOL			RUA2			RUA3			RLAOL			RLA2			RLA3			RWRR			RWRU			
		X1	Y1	Z1	X2	Y2	Z2	X3	Y3	Z3	X4	Y4	Z4	X5	Y5	Z5	X6	Y6	Z6	X7	Y7	Z7	X8	Y8	Z8	X9	Y9	Z9	X10	Y10	Z10	X11	Y11	Z11	X12	Y12	Z12	X13	Y13	Z13	X14	Y14	Z14	X15	Y15	Z15	X16	Y16	Z16	X17	Y17	Z17	X18	Y18	Z18	X19	Y19	Z19	X20	Y20	Z20	X21	Y21	Z21	X22	Y22	Z22	X23	Y23	Z23	X24	Y24	Z24	X25	Y25	Z25	X26	Y26	Z26	X27	Y27	Z27	X28	Y28	Z28	X29	Y29	Z29	X30	Y30	Z30	X31	Y31	Z31	X32	Y32	Z32	X33	Y33	Z33	X34	Y34	Z34	X35	Y35	Z35	X36	Y36	Z36	X37	Y37	Z37	X38	Y38	Z38	X39	Y39	Z39	X40	Y40	Z40	X41	Y41	Z41	X42	Y42	Z42	X43	Y43	Z43	X44	Y44	Z44	X45	Y45	Z45	X46	Y46	Z46	X47	Y47	Z47	X48	Y48	Z48	X49	Y49	Z49	X50	Y50	Z50	X51	Y51	Z51	X52	Y52	Z52	X53	Y53	Z53	X54	Y54	Z54	X55	Y55	Z55	

1	0	128.3375854492188	1352.894165039063	-2235.009765625	197.9440765380859	1371.618896484375	-214.8990936279296	442.5540771484375	1568.492797851562	-1192.186401367188	391.653564453125	1592.639770507812	-1128.943237304688	399.3961791992188	1592.188232421875	-1264.87451171875	209.0237121582031	1432.5947265625	-1199.278076171875	117.8884048461914	1278.7744140625	-1208.114624023438	103.326545715332	1243.541137695312	-1227.128173828125	96.18579864501953	1235.897338867188	-1177.747436523438	92.50025939941406	1179.813598632812	-1213.18701171875	90.16774749755859	1108.11083984375	-1213.79638671875	67.94580841064453	1073.404296875	-1231.876831054688	66.78982543945312	1069.927124023438	-1181.531860351562	55.91931915283203	1011.339965820313	-1212.029296875	51.34471130371094	942.9678344726564	-1235.769775390625	50.51669311523438	939.2479858398439	-1184.37255859375	39.03430938720703	881.3294677734376	-1214.187377929688	129.0242309570312	678.6540527343751	-1419.16748046875	94.52370452880859	615.5071411132814	-1384.960083007812	132.7698364257812	617.0659179687501	-1417.36279296875	121.6549911499023	330.545867919922	-1494.999877929688	85.93881225585938	260.0952453613282	-1485.50830078125	130.5213928222656	270.3739624023439	-1507.352294921875	109.5372009277344	68.89527130126962	-1466.444458007812	312.6500549316406	50.41021347045908	-1542.400268554688	236.0972137451172	26.6121711730958	-1621.575805664062	97.89537811279297	688.3187255859376	-1013.021423339844	141.946044921875	639.5148315429689	-967.922119140625	108.0942153930664	628.3766479492189	-1002.855346679688	75.95108032226562	345.6672058105469	-936.0271606445312	108.1133117675781	283.7425231933594	-899.8740234375	72.30838775634766	283.3658752441407	-934.2350463867188	89.38526153564453	62.0365829467774	-966.45556640625	278.8212280273438	48.31064605712896	-867.9203491210938	189.4083099365234	37.59673309326177	-797.7938842773438	354.2380676269531	1300.8837890625	-1206.559326171875	349.0433654785156	1155.583740234375	-1203.904174804688	244.7915191650391	1397.424072265625	-1366.1533203125	139.9569396972656	1271.773315429688	-1452.072631835938	96.68950653076172	1224.220581054688	-1438.23974609375	127.1689529418945	1213.133911132812	-1477.953735351562	100.6017761230469	1143.109252929688	-1544.67236328125	169.3436126708984	1143.581909179688	-1584.005249023438	139.1224975585938	1182.1396484375	-1573.1328125	188.1106872558594	1264.4052734375	-1617.851806640625	198.4639892578125	1296.5419921875	-1546.63427734375	263.6707763671875	1391.491577148438	-1041.204223632812	161.4257202148438	1268.584838867188	-960.1077270507811	141.4276580810547	1211.505493164062	-934.1928100585936	119.4121246337891	1222.284790039062	-980.0548095703124	143.1533050537109	1137.88037109375	-851.6052856445311	139.4059448242188	1216.251953125	-836.1170654296874	177.7595520019531	1183.624755859375	-827.9395751953124	205.3780670166016	1270.959350585938	-804.2224731445311	225.5928344726562	1307.338989257812	-872.6161499023436	
2	0.005	128.2948150634766	1352.8828125	-2235.032470703125	197.9530181884766	1371.640258789062	-214.9256591796874	442.5046997070312	1568.525756835938	-1192.22265625	391.5954895019531	1592.667602539062	-1128.992797851562	399.3201293945312	1592.204345703125	-1264.892822265625	208.9944610595703	1432.605102539062	-1199.305419921875	117.8689727783203	1278.783447265625	-1208.142211914062	103.2978439331055	1243.560302734375	-1227.157104492188	96.14200592041016	1235.902099609375	-1177.79931640625	92.46311187744141	1179.8330078125	-1213.215576171875	90.11420440673828	1108.143188476562	-1213.823364257812	67.88958740234375	1073.447265625	-1231.894287109375	66.725341796875	1069.960815429688	-1181.570678710938	55.86199951171875	1011.367553710938	-1212.044067382812	51.2474250793457	942.9556274414064	-1235.793090820312	50.42057418823242	939.2396850585939	-1184.3916015625	38.94582366943359	881.3142700195314	-1214.209228515625	128.9916381835938	678.6252441406251	-1419.205444335938	94.512451171875	615.4812622070314	-1384.990600585938	132.7619171142578	617.0513305664064	-1417.389526367188	121.6857681274414	330.535369873047	-1495.010375976562	85.95856475830078	260.0919494628907	-1485.509155273438	130.5394134521484	270.3685302734376	-1507.359252929688	109.5332717895508	68.88880920410165	-1466.447631835938	312.64599609375	50.41189575195322	-1542.400024414062	236.0985565185547	26.6129264831544	-1621.569702148438	97.86930847167969	688.2933349609376	-1012.979797363281	141.9375	639.5363159179689	-967.8514404296875	108.1028671264648	628.3684082031251	-1002.792602539062	76.04174041748047	345.6788940429688	-935.9822998046875	108.1935882568359	283.7339172363282	-899.8551025390625	72.37815856933594	283.3790893554688	-934.1996459960938	89.39757537841797	62.03765869140631	-966.4630737304688	278.8210144042969	48.30834960937505	-867.9139404296875	189.4065399169922	37.59499740600591	-797.7925415039062	354.2231750488281	1300.908569335938	-1206.573486328125	349.0391235351562	1155.613525390625	-1203.906982421875	244.7761688232422	1397.430541992188	-1366.176025390625	139.9552459716797	1271.772216796875	-1452.10107421875	96.69776916503906	1224.213745117188	-1438.263427734375	127.1595077514648	1213.129028320312	-1477.983276367188	100.6139984130859	1143.09912109375	-1544.700805664062	169.3670959472656	1143.574462890625	-1584.046752929688	139.1235504150391	1182.13720703125	-1573.16064453125	188.1116485595703	1264.40576171875	-1617.887329101562	198.4510803222656	1296.547973632812	-1546.661499023438	263.6470947265625	1391.509643554688	-1041.218872070312	161.4285583496094	1268.587280273438	-960.1029663085936	141.4496612548828	1211.498779296875	-934.1923828124999	119.4159240722656	1222.281494140625	-980.0480957031249	143.2064819335938	1137.873168945312	-851.6141967773436	139.4372711181641	1216.245849609375	-836.1336669921874	177.8057098388672	1183.628662109375	-827.9556274414061	205.4043731689453	1270.976196289062	-804.2429199218749	225.6150054931641	1307.37158203125	-872.6442260742186	
3	0.01	128.2455596923828	1352.869018554688	-2235.05859375	197.9637603759766	1371.663452148438	-214.956558227539	442.4486999511719	1568.565185546875	-1192.264770507812	391.5298156738281	1592.701171875	-1129.049560546875	399.2332153320312	1592.223266601562	-1264.913940429688	208.9617462158203	1432.61767578125	-1199.337158203125	117.8483734130859	1278.79443359375	-1208.17431640625	103.2655410766602	1243.583374023438	-1227.1904296875	96.09343719482422	1235.909790039062	-1177.856201171875	92.420654296875	1179.856689453125	-1213.24853515625	90.05213928222656	1108.1826171875	-1213.85400390625	67.82300567626953	1073.500122070312	-1231.913696289062	66.65038299560547	1070.001708984375	-1181.61474609375	55.79367446899414	1011.403137207031	-1212.061645507812	51.13127136230469	942.9426269531251	-1235.819213867188	50.30512619018555	939.2311401367189	-1184.412353515625	38.84092330932617	881.2975463867189	-1214.234008789062	128.9506530761719	678.5933837890626	-1419.249633789062	94.49931335449219	615.4491577148439	-1385.02734375	132.7519378662109	617.0336303710939	-1417.421875	121.7176971435547	330.5253295898439	-1495.026245117188	85.98383331298828	260.0880432128907	-1485.50830078125	130.5617523193359	270.3622436523439	-1507.367065429688	109.5284194946289	68.88089752197274	-1466.45166015625	312.6410827636719	50.41432952880869	-1542.399536132812	236.0998687744141	26.61413383483897	-1621.5625	97.84014892578125	688.2626953125001	-1012.929016113281	141.9304809570312	639.5615234375001	-967.766845703125	108.1162567138672	628.3577270507814	-1002.716979980469	76.152099609375	345.6937255859376	-935.93115234375	108.28955078125	283.7247619628907	-899.8330078125	72.46299743652344	283.3958129882813	-934.1600341796875	89.41183471679688	62.03845214843756	-966.4718627929688	278.8207092285156	48.30586242675786	-867.9066772460938	189.404541015625	37.59320831298833	-797.7911987304688	354.2066650390625	1300.937744140625	-1206.589477539062	349.0350646972656	1155.647583007812	-1203.90966796875	244.7593383789062	1397.4384765625	-1366.2021484375	139.9551849365234	1271.77001953125	-1452.134033203125	96.70879364013672	1224.205444335938	-1438.29150390625	127.1552047729492	1213.123168945312	-1478.016967773438	100.6312026977539	1143.086181640625	-1544.734008789062	169.3954315185547	1143.567138671875	-1584.09228515625	139.1269226074219	1182.133911132812	-1573.192749023438	188.1141052246094	1264.406616210938	-1617.925415039062	198.4374847412109	1296.5546875	-1546.692626953125	263.6191711425781	1391.531372070312	-1041.235961914062	161.4324493408203	1268.589599609375	-960.0968627929686	141.4776763916016	1211.489624023438	-934.1913452148436	119.422004699707	1222.276489257812	-980.0397338867186	143.2730102539062	1137.86328125	-851.6246948242186	139.4782257080078	1216.237182617188	-836.1516113281249	177.8631286621094	1183.631713867188	-827.9747924804686	205.4384460449219	1270.9951171875	-804.2676391601561	225.6384124755859	1307.406494140625	-872.6760253906249	
4	0.015	128.190185546875	1352.85302734375	-2235.087646484375	197.9764099121094	1371.68798828125	-214.9916687011718	442.3868103027344	1568.61083984375	-1192.3125	391.4574279785156	1592.740478515625	-1129.113159179688	399.1364440917969	1592.245239257812	-1264.937744140625	208.9261322021484	1432.632446289062	-1199.373291015625	117.8273010253906	1278.807250976562	-1208.210693359375	103.2301330566406	1243.610717773438	-1227.22802734375	96.04074859619141	1235.9208984375	-1177.917236328125	92.37334442138672	1179.884765625	-1213.285766601562	89.98189544677734	1108.229370117188	-1213.888061523438	67.74591064453125	1073.5634765625	-1231.934814453125	66.56533050537109	1070.050537109375	-1181.663452148438	55.71420288085938	1011.447387695313	-1212.08203125	50.995849609375	942.9291992187501	-1235.847900390625	50.16975784301758	939.2228393554689	-1184.434692382812	38.71957015991211	881.2797241210939	-1214.260864257812	128.9005584716797	678.5590820312501	-1419.300048828125	94.48432922363281	615.4102783203126	-1385.070434570312	132.7396850585938	617.0125732421876	-1417.460205078125	121.7504119873047	330.516082763672	-1495.0478515625	86.01521301269531	260.0835876464845	-1485.505004882812	130.5887145996094	270.3552246093751	-1507.37548828125	109.5225830078125	68.87148284912118	-1466.456665039062	312.63525390625	50.41765213012705	-1542.399047851562	236.1010589599609	26.61589241027842	-1621.554321289062	97.80838775634766	688.2266235351564	-1012.86865234375	141.9259643554688	639.5902709960939	-967.6679077148438	108.1353378295898	628.3443603515626	-1002.628234863281	76.28311157226562	345.7119750976563	-935.8740234375	108.4015655517578	283.7152404785157	-899.8078002929688	72.56364440917969	283.4163513183594	-934.1168823242188	89.42791748046875	62.03884887695318	-966.4818115234375	278.8202819824219	48.30326843261724	-867.8985595703125	189.4023895263672	37.59145355224614	-797.7900390625	354.18896484375	1300.971435546875	-1206.607177734375	349.0314331054688	1155.685546875	-1203.912109375	244.7413940429688	1397.447631835938	-1366.231567382812	139.9573516845703	1271.766479492188	-1452.171752929688	96.72323608398438	1224.195434570312	-1438.323852539062	127.1581726074219	1213.116577148438	-1478.05419921875	100.6542587280273	1143.070434570312	-1544.771484375	169.4291229248047	1143.560302734375	-1584.141357421875	139.1333160400391	1182.129516601562	-1573.229125976562	188.1184692382812	1264.408203125	-1617.964965820312	198.4237060546875	1296.56201171875	-1546.7275390625	263.5871276855469	1391.556884765625	-1041.255249023438	161.4376678466797	1268.591796875	-960.0893554687499	141.5123291015625	1211.47802734375	-934.1896972656249	119.4309158325195	1222.26904296875	-980.0294189453124	143.35400390625	1137.850463867188	-851.6369018554686	139.5299072265625	1216.225219726562	-836.1706542968749	177.9326934814453	1183.6337890625	-827.9971313476561	205.4812164306641	1271.015747070312	-804.2968749999999	225.6621398925781	1307.442504882812	-872.7110595703124	
